<svg id="Layer_1" height="512" viewBox="0 0 512 512" width="512" xmlns="http://www.w3.org/2000/svg" xmlns:xlink="http://www.w3.org/1999/xlink" data-name="Layer 1"><linearGradient id="linear-gradient" gradientUnits="userSpaceOnUse" x1="147.619" x2="147.619" y1="468" y2="103.555"><stop offset=".322" stop-color="#a163f5"/><stop offset=".466" stop-color="#b074ee"/><stop offset=".752" stop-color="#d8a1dd"/><stop offset=".898" stop-color="#efbad3"/></linearGradient><linearGradient id="linear-gradient-2" x1="211.048" x2="211.048" xlink:href="#linear-gradient" y1="468" y2="103.555"/><linearGradient id="linear-gradient-3" x1="274.478" x2="274.478" xlink:href="#linear-gradient" y1="468" y2="103.555"/><linearGradient id="linear-gradient-4" x1="337.907" x2="337.907" xlink:href="#linear-gradient" y1="468" y2="103.555"/><linearGradient id="linear-gradient-5" x1="84.189" x2="84.189" xlink:href="#linear-gradient" y1="468" y2="103.555"/><linearGradient id="linear-gradient-14" x1="50" x2="50" xlink:href="#linear-gradient" y1="468" y2="103.555"/><linearGradient id="linear-gradient-16" x1="255.756" x2="255.756" xlink:href="#linear-gradient" y1="468" y2="103.555"/><linearGradient id="linear-gradient-17" x1="347.841" x2="347.841" xlink:href="#linear-gradient" y1="468" y2="103.555"/><linearGradient id="linear-gradient-18" x1="347.949" x2="347.949" xlink:href="#linear-gradient" y1="468" y2="103.555"/><linearGradient id="linear-gradient-19" x1="415.418" x2="415.418" xlink:href="#linear-gradient" y1="468" y2="103.555"/><linearGradient id="linear-gradient-20" x1="347.734" x2="347.734" xlink:href="#linear-gradient" y1="468" y2="103.555"/><linearGradient id="linear-gradient-21" x1="280.264" x2="280.264" xlink:href="#linear-gradient" y1="468" y2="103.555"/><path d="m147.619 164.6a17.284 17.284 0 1 0 17.281 17.28 17.3 17.3 0 0 0 -17.281-17.28zm0 22.568a5.284 5.284 0 1 1 5.277-5.285 5.287 5.287 0 0 1 -5.277 5.282z" fill="url(#linear-gradient)"/><path d="m211.048 164.6a17.284 17.284 0 1 0 17.276 17.283 17.3 17.3 0 0 0 -17.276-17.283zm0 22.568a5.284 5.284 0 1 1 5.276-5.285 5.288 5.288 0 0 1 -5.276 5.282z" fill="url(#linear-gradient-2)"/><path d="m274.478 199.165a17.284 17.284 0 1 0 -17.278-17.285 17.3 17.3 0 0 0 17.278 17.285zm0-22.568a5.284 5.284 0 1 1 -5.277 5.283 5.286 5.286 0 0 1 5.277-5.28z" fill="url(#linear-gradient-3)"/><path d="m337.907 199.165a17.284 17.284 0 1 0 -17.276-17.285 17.3 17.3 0 0 0 17.276 17.285zm0-22.568a5.284 5.284 0 1 1 -5.276 5.283 5.286 5.286 0 0 1 5.276-5.28z" fill="url(#linear-gradient-4)"/><path d="m84.189 217.49a17.284 17.284 0 1 0 17.277 17.284 17.3 17.3 0 0 0 -17.277-17.284zm0 22.568a5.284 5.284 0 1 1 5.277-5.284 5.286 5.286 0 0 1 -5.277 5.284z" fill="url(#linear-gradient-5)"/><path d="m147.619 217.49a17.284 17.284 0 1 0 17.281 17.284 17.3 17.3 0 0 0 -17.281-17.284zm0 22.568a5.284 5.284 0 1 1 5.277-5.284 5.286 5.286 0 0 1 -5.277 5.284z" fill="url(#linear-gradient)"/><path d="m211.048 217.49a17.284 17.284 0 1 0 17.276 17.284 17.3 17.3 0 0 0 -17.276-17.284zm0 22.568a5.284 5.284 0 1 1 5.276-5.284 5.287 5.287 0 0 1 -5.276 5.284z" fill="url(#linear-gradient-2)"/><path d="m274.478 252.058a17.284 17.284 0 1 0 -17.278-17.284 17.3 17.3 0 0 0 17.278 17.284zm0-22.568a5.284 5.284 0 1 1 -5.277 5.284 5.286 5.286 0 0 1 5.277-5.284z" fill="url(#linear-gradient-3)"/><path d="m84.189 270.383a17.284 17.284 0 1 0 17.277 17.284 17.3 17.3 0 0 0 -17.277-17.284zm0 22.568a5.284 5.284 0 1 1 5.277-5.284 5.286 5.286 0 0 1 -5.277 5.284z" fill="url(#linear-gradient-5)"/><path d="m147.619 270.383a17.284 17.284 0 1 0 17.281 17.284 17.3 17.3 0 0 0 -17.281-17.284zm0 22.568a5.284 5.284 0 1 1 5.277-5.284 5.286 5.286 0 0 1 -5.277 5.284z" fill="url(#linear-gradient)"/><path d="m211.048 270.383a17.284 17.284 0 1 0 17.276 17.284 17.3 17.3 0 0 0 -17.276-17.284zm0 22.568a5.284 5.284 0 1 1 5.276-5.284 5.287 5.287 0 0 1 -5.276 5.284z" fill="url(#linear-gradient-2)"/><path d="m84.189 323.277a17.284 17.284 0 1 0 17.277 17.284 17.3 17.3 0 0 0 -17.277-17.284zm0 22.568a5.284 5.284 0 1 1 5.277-5.284 5.287 5.287 0 0 1 -5.277 5.284z" fill="url(#linear-gradient-5)"/><path d="m147.619 323.277a17.284 17.284 0 1 0 17.281 17.284 17.3 17.3 0 0 0 -17.281-17.284zm0 22.568a5.284 5.284 0 1 1 5.277-5.284 5.287 5.287 0 0 1 -5.277 5.284z" fill="url(#linear-gradient)"/><path d="m50 150.8a6 6 0 0 0 -6 6v2.935a6 6 0 0 0 12 0v-2.935a6 6 0 0 0 -6-6z" fill="url(#linear-gradient-14)"/><path d="m50 172.722a6 6 0 0 0 -6 6v85.224a6 6 0 0 0 12 0v-85.224a6 6 0 0 0 -6-6z" fill="url(#linear-gradient-14)"/><path d="m488.512 433.646a32.793 32.793 0 0 0 -32.728 32.783 21.567 21.567 0 0 1 -21.514 21.571h-30.565a127.26 127.26 0 0 0 1.295-227.722v-169.398c0-18.762-15.647-33.88-34.4-33.88h-20.6v-17.119a29 29 0 0 0 -58 0v17.119h-162v-17.119a29 29 0 0 0 -58 0v17.119h-20.5c-18.756 0-34.5 15.118-34.5 33.88v289.207c0 18.762 15.744 33.913 34.5 33.913h175.9c16.827 50.5 64.456 87 120.439 87a127.439 127.439 0 0 0 15.938-1h70.493a33.58 33.58 0 0 0 33.514-33.571 20.779 20.779 0 0 1 20.728-20.783 6 6 0 0 0 0-12zm-184.512-393.765a17 17 0 0 1 34 0v44.119h-34zm-220 0a17 17 0 0 1 34 0v44.119h-34zm-55 51c0-12.146 10.36-21.881 22.5-21.881h20.5v20.627a6.425 6.425 0 0 0 6.11 6.373h45.763a6.439 6.439 0 0 0 6.127-6.373v-20.627h162v20.627a6.524 6.524 0 0 0 6.224 6.373h45.762a6.342 6.342 0 0 0 6.014-6.373v-20.627h20.6c12.134 0 22.4 9.735 22.4 21.88v34.12h-364zm198.161 243.5a17.3 17.3 0 1 0 -4.617 19.05 127.725 127.725 0 0 0 1.508 48.569h-172.552c-12.14 0-22.5-9.768-22.5-21.913v-243.087h364v117.957a125.993 125.993 0 0 0 -42.587-8.292 17.272 17.272 0 1 0 -23.2 1.656 127.405 127.405 0 0 0 -100.052 86.055zm-10.837 6.185a5.277 5.277 0 1 1 -5.276-5.284 5.287 5.287 0 0 1 5.276 5.279zm126.86-105.787a5.277 5.277 0 1 1 -5.277-5.284 5.287 5.287 0 0 1 5.277 5.279zm4.657 254.221c-63.376 0-114.936-51.671-114.936-115.184s51.56-115.184 114.936-115.184 114.936 51.668 114.936 115.184-51.56 115.184-114.936 115.184z" fill="url(#linear-gradient-16)"/><path d="m347.841 353.8a19.84 19.84 0 0 0 -14.135 5.865 20.06 20.06 0 0 0 0 28.294 19.964 19.964 0 0 0 28.271 0 20.06 20.06 0 0 0 0-28.294 19.843 19.843 0 0 0 -14.136-5.865zm5.641 25.682a7.962 7.962 0 0 1 -11.282 0 8.039 8.039 0 0 1 0-11.34 7.965 7.965 0 0 1 11.282 0 8.038 8.038 0 0 1 0 11.344z" fill="url(#linear-gradient-17)"/><path d="m347.948 420.432a20.909 20.909 0 0 0 -14.9 6.183 21.146 21.146 0 0 0 0 29.828 21.046 21.046 0 0 0 29.8 0 21.145 21.145 0 0 0 0-29.829 20.913 20.913 0 0 0 -14.9-6.182zm6.407 27.535a9.045 9.045 0 0 1 -12.813 0 9.128 9.128 0 0 1 0-12.875 9.045 9.045 0 0 1 12.813 0 9.126 9.126 0 0 1 0 12.875z" fill="url(#linear-gradient-18)"/><path d="m430.319 359.01a21.044 21.044 0 0 0 -29.8 0 21.146 21.146 0 0 0 0 29.828 21.044 21.044 0 0 0 29.8 0 21.146 21.146 0 0 0 0-29.828zm-8.494 21.351a9.042 9.042 0 0 1 -12.813 0 9.128 9.128 0 0 1 0-12.875 9.045 9.045 0 0 1 12.813 0 9.128 9.128 0 0 1 0 12.875z" fill="url(#linear-gradient-19)"/><path d="m347.734 327.2a20.914 20.914 0 0 0 14.9-6.184 21.146 21.146 0 0 0 0-29.828 21.046 21.046 0 0 0 -29.8 0 21.145 21.145 0 0 0 0 29.829 20.91 20.91 0 0 0 14.9 6.183zm-6.407-27.535a9.044 9.044 0 0 1 12.814 0 9.128 9.128 0 0 1 0 12.875 9.045 9.045 0 0 1 -12.814 0 9.125 9.125 0 0 1 0-12.874z" fill="url(#linear-gradient-20)"/><path d="m280.265 352.61a20.918 20.918 0 0 0 -14.9 6.184 21.147 21.147 0 0 0 0 29.829 21.047 21.047 0 0 0 29.8 0 21.149 21.149 0 0 0 0-29.829 20.914 20.914 0 0 0 -14.9-6.184zm6.406 27.536a9.046 9.046 0 0 1 -12.814 0 9.126 9.126 0 0 1 0-12.875 9.044 9.044 0 0 1 12.814 0 9.128 9.128 0 0 1 0 12.875z" fill="url(#linear-gradient-21)"/><g fill="url(#linear-gradient-17)"><path d="m347.84 332.17a41.266 41.266 0 0 0 -29.4 12.2 41.749 41.749 0 0 0 0 58.887 41.269 41.269 0 0 0 29.4 12.2 41.267 41.267 0 0 0 29.4-12.2 41.749 41.749 0 0 0 0-58.887 41.266 41.266 0 0 0 -29.4-12.2zm20.908 62.613a29.52 29.52 0 0 1 -41.813 0 29.728 29.728 0 0 1 0-41.934 29.52 29.52 0 0 1 41.813 0 29.73 29.73 0 0 1 0 41.934z"/><path d="m347.841 264.033c-60.417 0-109.57 49.249-109.57 109.783s49.153 109.784 109.57 109.784 109.571-49.25 109.571-109.784-49.153-109.783-109.571-109.783zm0 207.566c-53.8 0-97.57-43.866-97.57-97.783s43.769-97.783 97.57-97.783 97.571 43.865 97.571 97.783-43.77 97.784-97.571 97.784z"/></g></svg>